# xmcd CD database file
#
# Track frame offsets:
#	150
#	26978
#	51243
#	73252
#	101870
#	133769
#	164893
#	196155
#	214502
#	246772
#
# Disc length: 3611 seconds
#
# Revision: 0
# Processed by: cddbd v1.5.2PL0 Copyright (c) Steve Scherf et al.
# Submitted via: CDex 1.70beta2
#
DISCID=9e0e190a
DTITLE=Doug Johnson Trio - The March Of Time
DYEAR=2008
DGENRE=Jazz
TTITLE0=Breakfast at Gamlitz
TTITLE1=The March Of Time
TTITLE2=All The Things You Are
TTITLE3=March 5th, 2004
TTITLE4=Footprints
TTITLE5=Waltz
TTITLE6=Lament
TTITLE7=New Song For An Old Friend
TTITLE8=I Remember You
TTITLE9=Despedida
EXTD=YEAR: 2008
EXTT0=
EXTT1=
EXTT2=
EXTT3=
EXTT4=
EXTT5=
EXTT6=
EXTT7=
EXTT8=
EXTT9=
PLAYORDER=
